<svg id="visual" viewBox="0 0 900 600" width="900" height="600" xmlns="http://www.w3.org/2000/svg" xmlns:xlink="http://www.w3.org/1999/xlink" version="1.1"><rect x="0" y="0" width="900" height="600" fill="#001220"></rect><defs><linearGradient id="grad1_0" x1="33.3%" y1="0%" x2="100%" y2="100%"><stop offset="20%" stop-color="#001220" stop-opacity="1"></stop><stop offset="80%" stop-color="#001220" stop-opacity="1"></stop></linearGradient></defs><defs><linearGradient id="grad2_0" x1="0%" y1="0%" x2="66.7%" y2="100%"><stop offset="20%" stop-color="#001220" stop-opacity="1"></stop><stop offset="80%" stop-color="#001220" stop-opacity="1"></stop></linearGradient></defs><g transform="translate(900, 0)"><path d="M0 432.7C-39.3 433.3 -78.7 434 -112 417.9C-145.3 401.8 -172.6 369 -197.5 342.1C-222.4 315.2 -244.9 294.2 -275.1 275.1C-305.2 256 -343 238.7 -365.5 211C-387.9 183.3 -395.1 145.1 -403.8 108.2C-412.4 71.3 -422.5 35.6 -432.7 0L0 0Z" fill="#FBAE3C"></path></g><g transform="translate(0, 600)"><path d="M0 -432.7C39.3 -432.4 78.5 -432.2 111.3 -415.3C144.1 -398.5 170.4 -365 196 -339.5C221.6 -314 246.5 -296.5 279.3 -279.3C312.1 -262.1 352.9 -245.2 374.7 -216.3C396.5 -187.5 399.2 -146.7 405.7 -108.7C412.2 -70.7 422.4 -35.3 432.7 0L0 0Z" fill="#FBAE3C"></path></g></svg>